<svg width="138" height="74" viewBox="0 0 138 74" fill="none" xmlns="http://www.w3.org/2000/svg">
<path d="M32.448 59.76C32.6907 60.1413 32.812 60.54 32.812 60.956C32.812 61.4413 32.6213 61.84 32.24 62.152C31.8587 62.464 31.408 62.62 30.888 62.62C29.9867 62.62 29.2587 62.1693 28.704 61.268L25.688 56.328C24.44 54.3867 22.4987 53.416 19.864 53.416C16.4667 53.416 13.5027 52.6533 10.972 51.128C8.476 49.6027 6.552 47.436 5.2 44.628C3.848 41.82 3.172 38.5093 3.172 34.696C3.172 30.848 3.83067 27.52 5.148 24.712C6.5 21.8693 8.424 19.7027 10.92 18.212C13.4507 16.6867 16.432 15.924 19.864 15.924C23.2613 15.924 26.208 16.6867 28.704 18.212C31.2347 19.7027 33.176 21.8693 34.528 24.712C35.88 27.52 36.556 30.8307 36.556 34.644C36.556 39.0813 35.6547 42.8427 33.852 45.928C32.084 48.9787 29.5533 51.1107 26.26 52.324C27.0227 52.5667 27.6987 52.9653 28.288 53.52C28.8773 54.1093 29.484 54.9067 30.108 55.912L32.448 59.76ZM7.54 34.644C7.54 39.4627 8.61467 43.1893 10.764 45.824C12.948 48.4587 15.9813 49.776 19.864 49.776C23.7467 49.776 26.7627 48.476 28.912 45.876C31.096 43.2413 32.188 39.4973 32.188 34.644C32.188 29.7907 31.1133 26.064 28.964 23.464C26.8147 20.864 23.7813 19.564 19.864 19.564C15.9813 19.564 12.948 20.8813 10.764 23.516C8.61467 26.116 7.54 29.8253 7.54 34.644Z" fill="black"/>
<path d="M81.22 48.2C81.46 48.464 81.58 48.752 81.58 49.064C81.58 49.376 81.448 49.664 81.184 49.928C80.944 50.168 80.656 50.288 80.32 50.288C79.984 50.288 79.684 50.156 79.42 49.892L76.108 46.436C75.028 47.684 73.792 48.632 72.4 49.28C71.008 49.928 69.544 50.252 68.008 50.252C66.424 50.252 65.02 49.988 63.796 49.46C62.572 48.908 61.612 48.128 60.916 47.12C60.22 46.112 59.872 44.948 59.872 43.628C59.872 42.044 60.364 40.64 61.348 39.416C62.332 38.168 63.832 36.956 65.848 35.78C64.792 34.676 64.012 33.68 63.508 32.792C63.028 31.904 62.788 30.944 62.788 29.912C62.788 28.184 63.376 26.828 64.552 25.844C65.728 24.86 67.216 24.368 69.016 24.368C70.744 24.368 72.124 24.824 73.156 25.736C74.188 26.648 74.704 27.896 74.704 29.48C74.704 30.776 74.296 31.928 73.48 32.936C72.688 33.944 71.428 35 69.7 36.104L75.784 42.512C76.6 40.76 77.08 38.672 77.224 36.248C77.248 35.816 77.392 35.492 77.656 35.276C77.92 35.036 78.22 34.916 78.556 34.916C78.916 34.916 79.216 35.048 79.456 35.312C79.696 35.552 79.804 35.888 79.78 36.32C79.564 39.44 78.82 42.128 77.548 44.384L81.22 48.2ZM69.052 26.6C68.02 26.6 67.18 26.9 66.532 27.5C65.884 28.1 65.56 28.904 65.56 29.912C65.56 30.656 65.752 31.364 66.136 32.036C66.544 32.708 67.192 33.5 68.08 34.412C69.568 33.452 70.612 32.624 71.212 31.928C71.836 31.232 72.148 30.464 72.148 29.624C72.148 28.712 71.86 27.98 71.284 27.428C70.732 26.876 69.988 26.6 69.052 26.6ZM68.116 47.876C69.316 47.876 70.456 47.612 71.536 47.084C72.616 46.556 73.576 45.764 74.416 44.708L67.432 37.472C65.68 38.528 64.456 39.524 63.76 40.46C63.088 41.372 62.752 42.404 62.752 43.556C62.752 44.9 63.232 45.956 64.192 46.724C65.176 47.492 66.484 47.876 68.116 47.876Z" fill="black"/>
<path d="M136.088 53.556C136.227 53.8333 136.296 54.128 136.296 54.44C136.296 54.96 136.088 55.3933 135.672 55.74C135.291 56.0867 134.823 56.26 134.268 56.26C133.401 56.26 132.795 55.844 132.448 55.012L128.756 46.588H109.152L105.408 55.012C105.061 55.844 104.455 56.26 103.588 56.26C103.033 56.26 102.548 56.0867 102.132 55.74C101.716 55.3587 101.508 54.908 101.508 54.388C101.508 54.1107 101.577 53.8333 101.716 53.556L116.588 20.484C116.796 19.9987 117.108 19.6347 117.524 19.392C117.94 19.1493 118.391 19.028 118.876 19.028C119.396 19.028 119.864 19.1667 120.28 19.444C120.696 19.6867 121.008 20.0333 121.216 20.484L136.088 53.556ZM127.196 43.052L118.928 24.384L110.712 43.052H127.196Z" fill="black"/>
</svg>
