<svg width="392" height="39" viewBox="0 0 392 39" fill="none" xmlns="http://www.w3.org/2000/svg">
<path d="M14.224 38.416C11.624 38.416 9.128 38.0347 6.736 37.272C4.37867 36.4747 2.48933 35.4173 1.068 34.1C0.548 33.6147 0.288 33.008 0.288 32.28C0.288 31.7947 0.426667 31.3787 0.704 31.032C0.981333 30.6507 1.31067 30.46 1.692 30.46C2.14267 30.46 2.628 30.6507 3.148 31.032C6.372 33.528 10.0467 34.776 14.172 34.776C17.1533 34.776 19.4413 34.204 21.036 33.06C22.6307 31.916 23.428 30.2867 23.428 28.172C23.428 26.9587 23.0467 25.988 22.284 25.26C21.5213 24.4973 20.516 23.8907 19.268 23.44C18.02 22.9893 16.3387 22.5213 14.224 22.036C11.3813 21.3773 9.04133 20.684 7.204 19.956C5.40133 19.228 3.928 18.188 2.784 16.836C1.67467 15.484 1.12 13.716 1.12 11.532C1.12 9.452 1.67467 7.61467 2.784 6.02C3.928 4.39066 5.50533 3.14266 7.516 2.276C9.56133 1.37466 11.884 0.923997 14.484 0.923997C16.9107 0.923997 19.164 1.30533 21.244 2.068C23.3587 2.796 25.1267 3.85333 26.548 5.24C27.1027 5.79466 27.38 6.40133 27.38 7.06C27.38 7.54533 27.2413 7.97866 26.964 8.36C26.6867 8.70667 26.3573 8.88 25.976 8.88C25.5947 8.88 25.092 8.68933 24.468 8.308C22.7693 6.92133 21.192 5.95067 19.736 5.396C18.28 4.84133 16.5293 4.564 14.484 4.564C11.6067 4.564 9.37067 5.17067 7.776 6.384C6.18133 7.56267 5.384 9.22667 5.384 11.376C5.384 13.2133 6.07733 14.6 7.464 15.536C8.88533 16.4373 11.052 17.2347 13.964 17.928C17.1187 18.6907 19.5973 19.4013 21.4 20.06C23.2027 20.684 24.6933 21.6373 25.872 22.92C27.0853 24.2027 27.692 25.9187 27.692 28.068C27.692 30.1133 27.12 31.916 25.976 33.476C24.8667 35.036 23.2893 36.2493 21.244 37.116C19.1987 37.9827 16.8587 38.416 14.224 38.416ZM45.5414 34.932C46.7547 35.036 47.3614 35.5907 47.3614 36.596C47.3614 37.1853 47.1361 37.636 46.6854 37.948C46.2694 38.2253 45.6281 38.3293 44.7614 38.26L43.3574 38.156C40.5841 37.948 38.5387 37.116 37.2214 35.66C35.9041 34.204 35.2454 32.0027 35.2454 29.056V16.004H31.7614C31.1721 16.004 30.7041 15.8653 30.3574 15.588C30.0454 15.276 29.8894 14.8773 29.8894 14.392C29.8894 13.872 30.0454 13.456 30.3574 13.144C30.7041 12.832 31.1721 12.676 31.7614 12.676H35.2454V6.8C35.2454 6.14133 35.4361 5.63867 35.8174 5.292C36.1987 4.91066 36.7187 4.72 37.3774 4.72C38.0014 4.72 38.5041 4.91066 38.8854 5.292C39.2667 5.63867 39.4574 6.14133 39.4574 6.8V12.676H45.2294C45.7841 12.676 46.2174 12.832 46.5294 13.144C46.8761 13.456 47.0494 13.872 47.0494 14.392C47.0494 14.8773 46.8761 15.276 46.5294 15.588C46.2174 15.8653 45.7841 16.004 45.2294 16.004H39.4574V29.264C39.4574 31.1707 39.8387 32.5573 40.6014 33.424C41.3987 34.256 42.5774 34.724 44.1374 34.828L45.5414 34.932ZM61.8613 12.052C68.2053 12.052 71.3773 15.38 71.3773 22.036V36.18C71.3773 36.804 71.1866 37.3067 70.8053 37.688C70.4586 38.0693 69.9733 38.26 69.3493 38.26C68.7253 38.26 68.2226 38.0693 67.8413 37.688C67.4599 37.3067 67.2693 36.804 67.2693 36.18V33.684C66.6106 35.1747 65.6053 36.336 64.2533 37.168C62.9013 37.9653 61.3413 38.364 59.5733 38.364C57.9439 38.364 56.4359 38.0347 55.0493 37.376C53.6973 36.7173 52.6226 35.7987 51.8253 34.62C51.0279 33.4413 50.6293 32.1413 50.6293 30.72C50.6293 28.8133 51.1146 27.34 52.0853 26.3C53.0559 25.2253 54.6506 24.4627 56.8693 24.012C59.0879 23.5267 62.1733 23.284 66.1253 23.284H67.2693V21.568C67.2693 19.488 66.8359 17.9627 65.9693 16.992C65.1373 16.0213 63.7679 15.536 61.8613 15.536C59.5039 15.536 57.1119 16.1773 54.6853 17.46C53.7493 18.0493 53.0906 18.344 52.7093 18.344C52.2933 18.344 51.9466 18.188 51.6693 17.876C51.3919 17.564 51.2533 17.1653 51.2533 16.68C51.2533 16.1947 51.3919 15.7787 51.6693 15.432C51.9813 15.0507 52.4666 14.6693 53.1253 14.288C54.3386 13.5947 55.7079 13.0573 57.2333 12.676C58.7933 12.26 60.3359 12.052 61.8613 12.052ZM60.1453 35.036C62.2253 35.036 63.9239 34.3427 65.2413 32.956C66.5933 31.5347 67.2693 29.7147 67.2693 27.496V25.988H66.3333C63.2826 25.988 60.9599 26.1267 59.3653 26.404C57.7706 26.6467 56.6266 27.08 55.9333 27.704C55.2746 28.2933 54.9453 29.1773 54.9453 30.356C54.9453 31.708 55.4306 32.8347 56.4013 33.736C57.4066 34.6027 58.6546 35.036 60.1453 35.036ZM89.5395 38.364C87.1822 38.364 85.0848 37.8267 83.2475 36.752C81.4448 35.6773 80.0408 34.152 79.0355 32.176C78.0648 30.2 77.5795 27.912 77.5795 25.312C77.5795 22.712 78.0822 20.4067 79.0875 18.396C80.1275 16.3853 81.5662 14.8253 83.4035 13.716C85.2408 12.6067 87.3555 12.052 89.7475 12.052C91.0648 12.052 92.3648 12.2427 93.6475 12.624C94.9648 12.9707 96.1088 13.4907 97.0795 14.184C97.7035 14.6 98.1368 15.016 98.3795 15.432C98.6568 15.8133 98.7955 16.2467 98.7955 16.732C98.7955 17.2173 98.6568 17.616 98.3795 17.928C98.1368 18.24 97.8075 18.396 97.3915 18.396C97.1488 18.396 96.8888 18.3267 96.6115 18.188C96.3342 18.0493 96.0915 17.9107 95.8835 17.772C95.7102 17.6333 95.5888 17.5467 95.5195 17.512C94.6182 16.9227 93.7515 16.4547 92.9195 16.108C92.1222 15.7613 91.1342 15.588 89.9555 15.588C87.4248 15.588 85.4488 16.4547 84.0275 18.188C82.6408 19.8867 81.9475 22.2613 81.9475 25.312C81.9475 28.3627 82.6408 30.72 84.0275 32.384C85.4488 34.048 87.4248 34.88 89.9555 34.88C91.1342 34.88 92.1395 34.7067 92.9715 34.36C93.8382 34.0133 94.7048 33.5453 95.5715 32.956C95.9528 32.7133 96.3168 32.5053 96.6635 32.332C97.0102 32.1587 97.3048 32.072 97.5475 32.072C97.9288 32.072 98.2408 32.228 98.4835 32.54C98.7608 32.852 98.8995 33.2507 98.8995 33.736C98.8995 34.1867 98.7782 34.6027 98.5355 34.984C98.2928 35.3307 97.8422 35.7293 97.1835 36.18C96.2128 36.8387 95.0342 37.376 93.6475 37.792C92.2955 38.1733 90.9262 38.364 89.5395 38.364ZM124.198 34.672C124.753 35.192 125.03 35.7467 125.03 36.336C125.03 36.856 124.84 37.3067 124.458 37.688C124.112 38.0693 123.678 38.26 123.158 38.26C122.708 38.26 122.24 38.052 121.754 37.636L108.182 25.936V36.18C108.182 36.8387 107.974 37.3587 107.558 37.74C107.177 38.0867 106.692 38.26 106.102 38.26C105.478 38.26 104.958 38.0867 104.542 37.74C104.161 37.3587 103.97 36.8387 103.97 36.18V3.16C103.97 2.50133 104.161 1.99867 104.542 1.652C104.958 1.27066 105.478 1.08 106.102 1.08C106.692 1.08 107.177 1.27066 107.558 1.652C107.974 1.99867 108.182 2.50133 108.182 3.16V24.272L120.61 12.884C121.026 12.468 121.494 12.26 122.014 12.26C122.534 12.26 122.985 12.4507 123.366 12.832C123.748 13.2133 123.938 13.664 123.938 14.184C123.938 14.7733 123.696 15.2933 123.21 15.744L112.966 24.896L124.198 34.672ZM159.341 38.416C155.943 38.416 152.979 37.6533 150.449 36.128C147.953 34.6027 146.029 32.436 144.677 29.628C143.325 26.82 142.649 23.5093 142.649 19.696C142.649 15.848 143.307 12.52 144.625 9.712C145.977 6.86933 147.901 4.70266 150.397 3.212C152.927 1.68666 155.909 0.923997 159.341 0.923997C162.773 0.923997 165.737 1.68666 168.233 3.212C170.763 4.70266 172.687 6.86933 174.005 9.712C175.357 12.52 176.033 15.8307 176.033 19.644C176.033 23.4573 175.357 26.7853 174.005 29.628C172.653 32.436 170.711 34.6027 168.181 36.128C165.685 37.6533 162.738 38.416 159.341 38.416ZM159.341 34.776C163.223 34.776 166.239 33.476 168.389 30.876C170.573 28.2413 171.665 24.4973 171.665 19.644C171.665 14.7907 170.59 11.064 168.441 8.464C166.291 5.864 163.258 4.564 159.341 4.564C155.458 4.564 152.425 5.88133 150.241 8.516C148.091 11.116 147.017 14.8253 147.017 19.644C147.017 24.4627 148.091 28.1893 150.241 30.824C152.425 33.4587 155.458 34.776 159.341 34.776ZM201.34 13.456C201.721 12.624 202.328 12.208 203.16 12.208C203.68 12.208 204.148 12.3813 204.564 12.728C204.98 13.0747 205.188 13.508 205.188 14.028C205.188 14.34 205.118 14.6173 204.98 14.86L194.84 36.7C194.632 37.1507 194.32 37.5147 193.904 37.792C193.488 38.0347 193.037 38.156 192.551 38.156C192.101 38.156 191.668 38.0347 191.252 37.792C190.836 37.5147 190.506 37.1507 190.264 36.7L180.176 14.86C180.037 14.6173 179.968 14.3573 179.968 14.08C179.968 13.56 180.193 13.1093 180.644 12.728C181.129 12.3467 181.649 12.156 182.204 12.156C182.55 12.156 182.88 12.26 183.192 12.468C183.538 12.676 183.798 12.9707 183.972 13.352L192.656 32.852L201.34 13.456ZM229.098 32.124C229.479 32.124 229.808 32.28 230.086 32.592C230.363 32.904 230.502 33.3027 230.502 33.788C230.502 34.6547 229.895 35.452 228.682 36.18C227.434 36.908 226.116 37.4627 224.73 37.844C223.343 38.1907 221.991 38.364 220.674 38.364C216.756 38.364 213.654 37.2027 211.366 34.88C209.112 32.5573 207.986 29.3507 207.986 25.26C207.986 22.66 208.488 20.372 209.494 18.396C210.499 16.3853 211.903 14.8253 213.706 13.716C215.543 12.6067 217.623 12.052 219.946 12.052C223.239 12.052 225.856 13.1267 227.798 15.276C229.739 17.4253 230.71 20.3373 230.71 24.012C230.71 24.7053 230.571 25.208 230.294 25.52C230.016 25.832 229.566 25.988 228.942 25.988H212.198C212.51 31.9507 215.335 34.932 220.674 34.932C222.026 34.932 223.187 34.7587 224.158 34.412C225.128 34.0307 226.168 33.528 227.278 32.904C228.179 32.384 228.786 32.124 229.098 32.124ZM219.998 15.328C217.779 15.328 215.994 16.0213 214.642 17.408C213.324 18.7947 212.544 20.7533 212.302 23.284H227.018C226.948 20.7187 226.307 18.76 225.094 17.408C223.88 16.0213 222.182 15.328 219.998 15.328ZM249.448 12.156C250.904 12.052 251.632 12.6413 251.632 13.924C251.632 14.4787 251.476 14.9293 251.164 15.276C250.852 15.588 250.314 15.7787 249.552 15.848L247.992 16.004C245.669 16.212 243.936 17.044 242.792 18.5C241.682 19.9213 241.128 21.6027 241.128 23.544V36.18C241.128 36.8733 240.937 37.3933 240.556 37.74C240.174 38.0867 239.672 38.26 239.048 38.26C238.424 38.26 237.904 38.0867 237.488 37.74C237.106 37.3587 236.916 36.8387 236.916 36.18V14.236C236.916 13.5773 237.124 13.0747 237.54 12.728C237.956 12.3467 238.458 12.156 239.048 12.156C239.602 12.156 240.07 12.3467 240.452 12.728C240.833 13.0747 241.024 13.56 241.024 14.184V17.096C241.752 15.5707 242.774 14.4093 244.092 13.612C245.444 12.8147 246.986 12.3467 248.72 12.208L249.448 12.156ZM268.459 4.668C266.622 4.80667 265.235 5.396 264.299 6.436C263.363 7.44133 262.895 8.96667 262.895 11.012V12.676H268.667C269.256 12.676 269.707 12.832 270.019 13.144C270.331 13.456 270.487 13.872 270.487 14.392C270.487 14.912 270.331 15.3107 270.019 15.588C269.707 15.8653 269.256 16.004 268.667 16.004H262.895V36.18C262.895 36.8387 262.687 37.3587 262.271 37.74C261.89 38.0867 261.404 38.26 260.815 38.26C260.191 38.26 259.671 38.0867 259.255 37.74C258.874 37.3587 258.683 36.8387 258.683 36.18V16.004H255.199C254.61 16.004 254.142 15.8653 253.795 15.588C253.483 15.276 253.327 14.8773 253.327 14.392C253.327 13.872 253.483 13.456 253.795 13.144C254.142 12.832 254.61 12.676 255.199 12.676H258.683V11.74C258.683 8.62 259.463 6.176 261.023 4.408C262.583 2.60533 264.819 1.6 267.731 1.392L269.083 1.288C269.984 1.21867 270.626 1.30533 271.007 1.548C271.423 1.79067 271.631 2.224 271.631 2.848C271.631 3.85333 271.024 4.42533 269.811 4.564L268.459 4.668ZM276.467 38.26C275.843 38.26 275.323 38.0867 274.907 37.74C274.526 37.3587 274.335 36.8387 274.335 36.18V3.16C274.335 2.50133 274.526 1.99867 274.907 1.652C275.323 1.27066 275.843 1.08 276.467 1.08C277.056 1.08 277.542 1.27066 277.923 1.652C278.339 1.99867 278.547 2.50133 278.547 3.16V36.18C278.547 36.8387 278.339 37.3587 277.923 37.74C277.542 38.0867 277.056 38.26 276.467 38.26ZM296.881 38.364C294.489 38.364 292.374 37.8267 290.537 36.752C288.734 35.6773 287.33 34.152 286.325 32.176C285.354 30.1653 284.869 27.8427 284.869 25.208C284.869 22.5733 285.354 20.268 286.325 18.292C287.33 16.2813 288.734 14.7387 290.537 13.664C292.374 12.5893 294.489 12.052 296.881 12.052C299.273 12.052 301.387 12.5893 303.225 13.664C305.062 14.7387 306.466 16.2813 307.437 18.292C308.442 20.268 308.945 22.5733 308.945 25.208C308.945 27.8427 308.442 30.1653 307.437 32.176C306.466 34.152 305.062 35.6773 303.225 36.752C301.387 37.8267 299.273 38.364 296.881 38.364ZM296.881 34.88C299.377 34.88 301.283 34.0653 302.601 32.436C303.953 30.772 304.629 28.3627 304.629 25.208C304.629 22.1227 303.953 19.748 302.601 18.084C301.249 16.3853 299.342 15.536 296.881 15.536C294.419 15.536 292.513 16.3853 291.161 18.084C289.809 19.748 289.133 22.1227 289.133 25.208C289.133 28.328 289.791 30.72 291.109 32.384C292.461 34.048 294.385 34.88 296.881 34.88ZM349.548 13.508C349.894 12.676 350.466 12.26 351.264 12.26C351.784 12.26 352.252 12.4333 352.668 12.78C353.084 13.1267 353.292 13.56 353.292 14.08C353.292 14.3227 353.24 14.5827 353.136 14.86L344.504 36.7C344.296 37.1507 343.984 37.5147 343.568 37.792C343.186 38.0347 342.753 38.156 342.268 38.156C341.817 38.156 341.384 38.0347 340.968 37.792C340.586 37.5147 340.292 37.1507 340.084 36.7L332.908 18.448L325.784 36.7C325.61 37.1507 325.316 37.5147 324.9 37.792C324.484 38.0347 324.033 38.156 323.548 38.156C323.097 38.156 322.664 38.0347 322.248 37.792C321.832 37.5147 321.52 37.1507 321.312 36.7L312.68 14.912C312.576 14.6347 312.524 14.392 312.524 14.184C312.524 13.6293 312.749 13.1613 313.2 12.78C313.685 12.3987 314.205 12.208 314.76 12.208C315.592 12.208 316.181 12.624 316.528 13.456L323.652 32.644L330.984 13.612C331.192 13.1613 331.469 12.8147 331.816 12.572C332.197 12.3293 332.596 12.208 333.012 12.208C333.462 12.208 333.861 12.3293 334.208 12.572C334.589 12.8147 334.866 13.1613 335.04 13.612L342.372 32.592L349.548 13.508ZM360.817 1.08C361.684 1.08 362.377 1.42666 362.897 2.12C363.452 2.77867 363.729 3.784 363.729 5.136C363.729 7.87467 362.845 10.18 361.077 12.052C360.731 12.3987 360.349 12.572 359.933 12.572C359.552 12.572 359.223 12.4507 358.945 12.208C358.668 11.9307 358.529 11.6187 358.529 11.272C358.529 10.8907 358.668 10.5613 358.945 10.284C359.847 9.38267 360.419 8.23867 360.661 6.852C359.899 6.78267 359.257 6.488 358.737 5.968C358.252 5.448 358.009 4.78933 358.009 3.992C358.009 3.12533 358.269 2.432 358.789 1.912C359.344 1.35733 360.02 1.08 360.817 1.08ZM389.127 1.08C389.785 1.08 390.305 1.27066 390.687 1.652C391.068 2.03333 391.259 2.51867 391.259 3.108V36.18C391.259 36.804 391.068 37.3067 390.687 37.688C390.305 38.0693 389.785 38.26 389.127 38.26C388.468 38.26 387.948 38.0693 387.567 37.688C387.22 37.3067 387.047 36.804 387.047 36.18V33.372C386.284 34.9667 385.157 36.1973 383.667 37.064C382.211 37.9307 380.495 38.364 378.519 38.364C376.3 38.364 374.341 37.8093 372.643 36.7C370.944 35.5907 369.627 34.048 368.691 32.072C367.755 30.0613 367.287 27.7387 367.287 25.104C367.287 22.504 367.755 20.216 368.691 18.24C369.627 16.264 370.944 14.7387 372.643 13.664C374.341 12.5893 376.3 12.052 378.519 12.052C380.495 12.052 382.211 12.4853 383.667 13.352C385.157 14.2187 386.284 15.4493 387.047 17.044V3.108C387.047 2.484 387.22 1.99867 387.567 1.652C387.948 1.27066 388.468 1.08 389.127 1.08ZM379.351 34.88C381.812 34.88 383.701 34.048 385.019 32.384C386.371 30.6853 387.047 28.2933 387.047 25.208C387.047 22.1227 386.371 19.748 385.019 18.084C383.701 16.42 381.812 15.588 379.351 15.588C376.889 15.588 374.965 16.42 373.579 18.084C372.227 19.748 371.551 22.088 371.551 25.104C371.551 28.1893 372.227 30.5987 373.579 32.332C374.965 34.0307 376.889 34.88 379.351 34.88Z" fill="black"/>
</svg>
