<svg width="83" height="71" viewBox="0 0 83 71" fill="none" xmlns="http://www.w3.org/2000/svg">
<path d="M25.172 53.416C19.452 53.416 14.876 51.8733 11.444 48.788L13.108 45.512C14.9107 47.0373 16.748 48.1293 18.62 48.788C20.5267 49.4467 22.728 49.776 25.224 49.776C28.1707 49.776 30.4413 49.204 32.036 48.06C33.6307 46.916 34.428 45.304 34.428 43.224C34.428 42.0107 34.0467 41.0227 33.284 40.26C32.5213 39.4973 31.516 38.8907 30.268 38.44C29.02 37.9893 27.3387 37.5213 25.224 37.036C22.3813 36.3773 20.0413 35.684 18.204 34.956C16.4013 34.228 14.928 33.188 13.784 31.836C12.6747 30.484 12.12 28.716 12.12 26.532C12.12 24.452 12.6573 22.6147 13.732 21.02C14.8413 19.3907 16.4013 18.1427 18.412 17.276C20.4573 16.3747 22.8147 15.924 25.484 15.924C28.0147 15.924 30.372 16.3227 32.556 17.12C34.7747 17.9173 36.6467 19.0613 38.172 20.552L36.56 23.828C34.8267 22.3373 33.0587 21.2627 31.256 20.604C29.488 19.9107 27.564 19.564 25.484 19.564C22.6413 19.564 20.4053 20.1707 18.776 21.384C17.1813 22.5627 16.384 24.2267 16.384 26.376C16.384 28.2133 17.0947 29.6 18.516 30.536C19.9373 31.472 22.0867 32.2693 24.964 32.928C28.1187 33.6907 30.5973 34.4013 32.4 35.06C34.2027 35.684 35.6933 36.6373 36.872 37.92C38.0853 39.2027 38.692 40.9187 38.692 43.068C38.692 45.148 38.1373 46.968 37.028 48.528C35.9533 50.088 34.3933 51.3013 32.348 52.168C30.3027 53 27.9107 53.416 25.172 53.416Z" fill="black"/>
<path d="M56.864 53.416C53.4667 53.416 50.5027 52.6533 47.972 51.128C45.476 49.6027 43.552 47.436 42.2 44.628C40.848 41.82 40.172 38.5093 40.172 34.696C40.172 30.848 40.8307 27.52 42.148 24.712C43.5 21.8693 45.424 19.7027 47.92 18.212C50.4507 16.6867 53.432 15.924 56.864 15.924C60.296 15.924 63.26 16.6867 65.756 18.212C68.2867 19.7027 70.2107 21.8693 71.528 24.712C72.88 27.52 73.556 30.8307 73.556 34.644C73.556 38.4573 72.88 41.7853 71.528 44.628C70.176 47.436 68.2347 49.6027 65.704 51.128C63.208 52.6533 60.2613 53.416 56.864 53.416ZM56.864 49.776C60.7467 49.776 63.7627 48.476 65.912 45.876C68.096 43.2413 69.188 39.4973 69.188 34.644C69.188 29.7907 68.1133 26.064 65.964 23.464C63.8147 20.864 60.7813 19.564 56.864 19.564C52.9813 19.564 49.948 20.8813 47.764 23.516C45.6147 26.116 44.54 29.8253 44.54 34.644C44.54 39.4627 45.6147 43.1893 47.764 45.824C49.948 48.4587 52.9813 49.776 56.864 49.776Z" fill="black"/>
<line x1="31" y1="8" y2="8" stroke="black" stroke-width="2"/>
<line x1="1.01157" y1="7.12473" x2="1.01157" y2="65" stroke="black" stroke-width="2"/>
<line x1="0.0115662" y1="64" x2="30.9985" y2="64" stroke="black" stroke-width="2"/>
<line x1="55" y1="64" x2="83" y2="64" stroke="black" stroke-width="2"/>
<line x1="81.9896" y1="64.8753" x2="81.9896" y2="7.00001" stroke="black" stroke-width="2"/>
<line x1="82.9896" y1="8" x2="55.0014" y2="8" stroke="black" stroke-width="2"/>
</svg>
